<svg id="Layer_1" data-name="Layer 1" xmlns="http://www.w3.org/2000/svg" viewBox="0 0 196.89 201.98"><defs><style>.cls-1{fill:#040404;}</style></defs><title>Email_2</title><path class="cls-1" d="M537.23,181.12l.69.2c-.09.46-.1.84.57.64l.39.21c-.16.41,0,.61.42.7a2.22,2.22,0,0,1,1.2.69l.33.26c.09.11.18.1.28,0,.28.73,1,1.1,1.47,1.65,1.15,1.32,2.36,2.53,2.42,4.43,0,.49.23,1,.79.33v1.49c-.16-.38-.45-.39-.69-.14-1.16,1.23-2.5,2.25-3.76,3.36s-2.62,2.16-3.93,3.23c-.81.66-1.55,1.41-2.35,2.08s-1.9,1.52-2.85,2.29c-.5.4-1,.82-1.46,1.26a22.1,22.1,0,0,1-1.81,1.5c-.55-.06-.81.17-.72.74a.35.35,0,0,0-.21.1c-.58-.08-1,0-.74.74-.87.13-1.21,1-1.83,1.43s-1.09,1.24-1.9,1.53c-.53-.06-.72.22-.71.7a.28.28,0,0,0-.2.15l-.73,0a4.64,4.64,0,0,1-.13-1.78q0-26.58,0-53.18c0-2.09,0-2.09-2-2.09H373.83c-.2,0-.4,0-.6,0-.68-.1-1,.11-1,.87,0,.5,0,1,0,1.5q0,25.62,0,51.23a15.66,15.66,0,0,1-.1,1.94c-.05.35-.43.58-.64.27-.83-1.24-2.26-1.88-3-3.17-.18-.3-.57-.13-.81-.31.46-1-1.06-.58-.92-1.34-.78,0-.73-1.25-1.62-1.14-.83-.2-1.19-1-1.86-1.43s-1-1.26-1.86-1.51c.19-.67-.15-.82-.73-.71a.55.55,0,0,0-.18-.16c.05-.24.14-.54-.14-.66a4.11,4.11,0,0,1-.85-.64c-.75-.54-1.33-1.48-2.44-1.4.11-.86-1.12-.71-1.12-1.48-2-1.41-3.64-3.26-5.67-4.66-.59-.4-1.69-.88-1.33-2.07a3.17,3.17,0,0,1,.14-.57C349.8,187,352,185,353,183.76c1.22-1.38,3-2,4.2-3.3.17-.18.56-.17.84-.24.58.15.81,0,.62-.63.29-.31.81,0,1.07-.42.58.21.75,0,.61-.57l.41-.16c.56.14.81,0,.62-.63.82-.19,1-.7,1-1.5,0-7.57,0-15.14,0-22.7a7.32,7.32,0,0,1,.11-1.93c1-.1.72-.85.7-1.46.19-.36,0-.82.29-1.15.14,0,.38.08.41,0a3.34,3.34,0,0,1,1.05-1.22c.05,0-.05-.27-.08-.41.39-.41.6-1,1.28-1.12.67.18.69-.18.56-.67.45-.19,1,0,1.3-.69.25-.51,1.18-.21,1.79-.37a2.15,2.15,0,0,0,2.29-.7h35a10.58,10.58,0,0,1,1.49,0c1.3.19,2.05-.71,2.78-1.46.33-.34.69-.3,1-.51.48.1.84,0,.65-.6.33-.33,1.07-.13,1.11-.91,0-.13.57-.23.88-.35.49.11.81,0,.65-.58.88-.12,1.25-1,1.93-1.4a5,5,0,0,0,1.06-.64c.76.25.71-.29.76-.75.26-.07.75-.13.76-.23.07-.72.73-.63,1.12-.9l1.62-.95-.05-.27.33-.39c.43.23.75-.08,1.05-.29a9.48,9.48,0,0,0,1.92-1.54c.44-.09.34-.61.64-.81a2.33,2.33,0,0,0,2.3-1.5l.38-.32c1.13.14,1.68-.72,2.34-1.38,0,0,0-.08-.05-.13l.35-.3c.07.11.14.19.22,0l.37-.23a2.91,2.91,0,0,1,1.25-.6c.46-.06.52-.34.41-.72l.42-.19c.64.17.69-.17.56-.65l.4-.21c.08.1.16.12.25,0,.43-.07.4-.59.71-.77.53-.13,1.39.26,1.28-.84l.75-.16,0,0,0-.07c.19-.38.3-.87.89-.83.39-.09,1.11.2.82-.7.36-.29,1.08-.07,1.11-.87,0-.26.49-.18.75-.27s1,0,.72-.74c.41-.19,1.08.13,1.17-.74,0-.42.69-.14,1-.33.47.06,1,.16.65-.62a8.46,8.46,0,0,1,3.05-.11c-.11.51,0,.85.6.6a.62.62,0,0,0,.54.19c1.07-.13,1.61.79,2.2,1.34.36.34.77.33,1.08.6-.18.57,0,.78.6.62.4.25,1.05.11,1.14.85,0,.16.57.26.87.38-.19.62.07.77.63.63a4.83,4.83,0,0,1,2,1.53c.24.4.74.19,1,.51-.14,1,.68.59,1.11.75a56.63,56.63,0,0,0,5.12,3.77c-.16.55.13.6.55.49l.34.21c0,.29.06.58.46.65s.8.09,1,.31a8.3,8.3,0,0,0,2.9,2.23l.44.21a5,5,0,0,0,2.17,1.68l.45.12.07.08.07-.09c.38.2.3.87.88.86a1,1,0,0,1,.36.57c.09.35.33.38.63.24.77.53,1.72.81,2.24,1.71.11.19.52.2.78.3,0,.45,0,.84.61.64.38.26,1.07.08,1.14.86,0,.14.57.24.88.36-.13.55,0,.79.63.62l.4.16c-.1.46,0,.78.56.64.35.31,1.07,0,1.12.88,0,.3.68.16,1,.27-.08.35,0,.61.4.63s.79,0,1.19,0H519.7c1.54,0,3.08.08,4.62.12l1.31.16c-.18.55.08.7.58.63l1.12.34c-.28.66.08.73.61.65l.39.17c-.26.57,0,.74.54.69l.28.26c0,.14-.12.39-.08.41a2.61,2.61,0,0,1,1,1.2c0,.06.27,0,.42,0,.09.36.19.71.28,1.06,0,.63-.46,1.46.68,1.6a9.23,9.23,0,0,1,.13,2.23c0,7.28,0,14.57,0,21.85a4.09,4.09,0,0,0,.12,1.63v.06l0,0c.57,0,.81.32.88.83v.07l.07,0c.89-.18,1.38.55,1.89,1,.77.71,1.93.78,2.55,1.68v.06Z" transform="translate(-348.9 -118.01)"/><path class="cls-1" d="M519,313.57a6.31,6.31,0,0,1,2,1.47c.63.52,1,1.3,1.93,1.48-.2.61.09.73.61.62a2.65,2.65,0,0,1,1.83,1.4c.34.58.86.34,1.12.69a.72.72,0,0,0,0,.64,4.69,4.69,0,0,1-1.63.1H364.68c-.49,0-1,0-1.49,0,0-.26-.07-.52-.11-.78l.4-.15c.63.15.79-.11.59-.68.92-.1,1.34-.94,1.93-1.45.34-.3.76-.31,1-.6.66.18.71-.17.59-.67.39-.19.95-.08,1-.76.06-.41.58-.18.84-.38s.42-.41.4-.75l.51-.1a2.14,2.14,0,0,0,1.67-1.25c.25-.48,1.28-.14.92-1l.38-.37.08.06.07-.06.41-.14c.37-.07.65-.21.53-.67l.44-.14c.19,0,.51,0,.55,0,.34-.74,1.22-1,1.57-1.7a23.87,23.87,0,0,1,2.61-1.87c.58-.48,1.32-.85,1.59-1.64,1.13.17,1.63-.85,2.39-1.34,1.1-.7,1.85-1.84,3.1-2.43.52-.25,1.22-.57,1.44-1.24.15-.47,1.15-.08.86-.91l.61-.32c1-.62,1.94-1.24,2.89-1.89.16-.1.14-.35,0-.54.82-.16,1.09-1.13,1.9-1.29,0-.75.71-.51,1-.8.61.18.75-.09.59-.64l.35-.21c.63.17.73-.14.58-.66.87-.13,1.33-.92,2-1.39.33-.25.73-.37,1-.63.67.17.72-.18.57-.69a4.7,4.7,0,0,0,1.91-1.56c.3-.29.63-.21.88-.41.59.08.87-.15.75-.77.88-.05,1.31-.85,1.74-1.36s.74-.38,1.05-.64c.39,0,.63-.21.53-.65l.43-.15a2.08,2.08,0,0,0,1.64-1.65c.31-.12.69,0,.92-.35.42,0,.62-.16.54-.61l.43-.15c.45.07.78,0,.66-.57a4.28,4.28,0,0,0,1.92-1.7l.55-.28.42-.2c.7-.08,1.05-.75,1.64-1-.2-.76,1.13-.27.88-1.07l.3-.4c.78.43.67-.72,1.23-.71.89,0,1.44-.76,1.83-1.23s1.19-.49,1.13-1.24l.31-.35c.3.16.54,0,.79-.15a1.83,1.83,0,0,1,1.64-.24.47.47,0,0,0,.25.39.29.29,0,0,0,.46,0c.28.27.17.86.8.86.33,0,.33.4.4.66a19,19,0,0,1,1.75,1.6c.82.69,1.44,1.65,2.55,1.95a12.74,12.74,0,0,1,2.73,2.45,2.76,2.76,0,0,0,.91.53c-.21.94,1.14.78,1.13,1.59.73-.09.59,1.18,1.44.92l.38.19c-.13.48.13.64.56.65l.44.17c-.08.41.1.61.49.66.85.22,1.18,1.05,1.81,1.52s1,1.3,1.86,1.43c-.11.62.19.84.77.75l1.84.23c-.2.21-.22.55,0,.61a5.55,5.55,0,0,0,2.33,0c.25-.05.21-.39.05-.61.34-.05.67-.12,1-.15s.95.05,1.08-.66c0-.17.57-.26.88-.38.54.12.8,0,.6-.63l.33-.22c.59.14.79-.08.61-.66.91-.08,1.26-.95,1.85-1.46s1.27-1.09,2-1.59c.56.17.69-.11.62-.6l.33-.2c.61.19.76-.09.64-.63l.32-.23,1.54-1,0-.27c.09-.14.18-.28.26-.42l.1.07.08-.07.46-.13c.95-.48,1.59-1.38,2.57-1.83,0-.73,1.19-.57,1-1.42.81-.24,1.25-1,1.78-1.52.4-.4,1-.52,1.3-1.07.17-.3,1-.45,1.6,0,2.24,1.71,4.39,3.54,6.71,5.16.38.27.58.85,1.15.95a2.89,2.89,0,0,0,2.38,1.62,4.39,4.39,0,0,0,2.15,1.93c-.09.51,0,.81.62.62a4.07,4.07,0,0,1,1.94,1.59c.26.46.76.18,1,.52-.18.58,0,.79.62.64l.37.19c-.17.55,0,.78.59.64a2.67,2.67,0,0,1,1.84,1.39c.33.57.83.37,1.1.7-.23.63,0,.79.62.66l.4.15c-.15.5,0,.76.55.66a2.86,2.86,0,0,1,1.82,1.39c.34.53.83.38,1.11.72-.21.63.1.73.63.62.49.15.95.35,1.06.93v.07l.06,0,.76.16c0,.35-.17.83.5.68l.44.19a2.4,2.4,0,0,0,2.13,1.69c.46.09.38.63.7.83.09.12.19.11.28,0l.43.2c-.3.86.66.9,1,1.16.62.51,1.07,1.5,2.15,1.31.39.15.3.73.73.85.08.18.16.09.23,0l.39.29c-.31.85.64.76.93,1,.63.56,1.21,1.37,2.21,1.36l.36.37c-.31.83.65.48.88.92a2.74,2.74,0,0,0,1.58,1.2,7.68,7.68,0,0,1,2.12,1.83c.07.09.27.07.4.11a1,1,0,0,1,.38.56c.09.37.36.36.65.25l.37.2c-.08.48.08.72.6.59a3.72,3.72,0,0,1,1.83,1.44c.35.39.75.46,1.08.73C518.22,313.5,518.43,313.71,519,313.57Z" transform="translate(-348.9 -118.01)"/><path class="cls-1" d="M545,208.81q0,11.76,0,23.5V308.5c0,1.1,0,2.19,0,3.28,0,.49-.07,1-.1,1.47a.79.79,0,0,1-.5.44c-.44.1-.42.43-.28.78-.2.42,0,1.15-.82,1.09l-1.08,0c-.81-.05-1-1.14-1.78-1.15-.69-1.21-2.05-1.59-3-2.46-1.23-1.09-2.59-2.06-3.91-3.05s-2.51-2.13-3.85-3.07c-1.07-.74-1.92-1.72-3-2.39s-1.87-1.76-3.11-2.22c.35-.91-.67-.75-1-1.2A2.41,2.41,0,0,0,521,298.9c-.37-.31-1.06-.22-1.13-.95,0-.12-.51-.19-.78-.28.09-.54,0-.92-.69-.74a.65.65,0,0,0-.23-.13c.06-.53,0-.89-.71-.71a3.3,3.3,0,0,1-1.85-1.39c-.34-.44-.71-.38-1-.61.13-.6-.07-.89-.72-.74a.35.35,0,0,0-.21-.1c0-.51-.11-.84-.72-.73a3,3,0,0,1-1.82-1.4c-.34-.43-.71-.38-1-.61.19-.69-.14-.85-.74-.74a3.15,3.15,0,0,1-1.79-1.39c-.33-.42-.79-.29-1-.63,0-.09.09-.24.06-.26-.71-.54-1.13-1.57-2.29-1.36a12.49,12.49,0,0,0-2.66-2.48,34.46,34.46,0,0,1-4.08-3.23,7.66,7.66,0,0,0-1.34-.86,38.63,38.63,0,0,1-3.12-2.62c-.59-.43-1.53-.45-1.78-1.33-.72.14-.57-.71-1-.88-.17-.22-.43-.31-.63-.51-.69-.68-1.34-1.55-2.51-1.41,0-.09,0-.23-.07-.27-.61-.44-.8-1.38-1.72-1.43-.19-.36-.09-1.06-.87-.81a4.54,4.54,0,0,1-2-1.66c-.25-.31-.65-.12-.91-.35.16-.65-.09-.88-.72-.72a.39.39,0,0,0-.21-.13c.06-.53-.1-.86-.72-.7-.86,0-1-1.07-1.82-1.25-.16,0-.07-.53,0-.8.45,0,.83-.06.59-.67l.34-.2c.51.09.84,0,.63-.64l.31-.24c.52.13.83,0,.64-.61.89-.16,1.23-1,1.89-1.49s1.1-1.24,1.92-1.52c.56.14.79,0,.61-.63l.33-.21c.59.14.8-.06.62-.65.89-.05,1.23-.92,1.77-1.39a21.39,21.39,0,0,1,2-1.64c.59.18.7-.12.62-.61l.33-.22c.65.19.69-.17.61-.66.85.06.85-1.16,1.69-1.13,1.26-1.45,3-2.41,4.33-3.69a56.63,56.63,0,0,1,6.28-5.2c.06-.82,1.19-.8,1.26-1.61a.33.33,0,0,0,.45-.06l.33-.31c1.06-.23,1.59-1.26,2.52-1.68,0,0,0-.27,0-.41.8-.34,1.26-1.1,1.92-1.6s1-1.24,1.84-1.48c.53.13.78,0,.59-.6l.35-.2c.52.11.85,0,.63-.62l.32-.24c.54.12.8,0,.61-.64.87-.19,1.26-1,1.9-1.48s1.12-1.23,1.94-1.5c.6.14.73-.12.58-.65l.35-.2c.62.16.77-.11.61-.67.89-.12,1.27-.94,1.84-1.46a13.84,13.84,0,0,1,2-1.55c.61.18.68-.15.61-.63l.34-.2c.64.19.71-.16.61-.65a6.58,6.58,0,0,0,1-.7,27.43,27.43,0,0,1,3.58-3,8.37,8.37,0,0,0,2.67-2.56c.16.09.27,0,.38-.11a.48.48,0,0,0,.42-.23,29.08,29.08,0,0,0,5-4.2.79.79,0,0,0,.34-.69,3.21,3.21,0,0,0,.43-.07c1.32-.33,2-1.5,3-2.24,0,0,0-.18,0-.27a4,4,0,0,0,1.81-1.53A1.08,1.08,0,0,1,545,208.81Z" transform="translate(-348.9 -118.01)"/><path class="cls-1" d="M398.29,275.58a2.67,2.67,0,0,1-1.63,1.43,18.44,18.44,0,0,0-3.16,2.58,12.25,12.25,0,0,1-1.57,1,27.65,27.65,0,0,0-2.77,2.27A22.7,22.7,0,0,0,387,284.4c-.29.27-.42.6-.68.87a.77.77,0,0,0-.71.05,29.13,29.13,0,0,1-2.61,2c-.1.07,0,.37-.05.56a.53.53,0,0,0-.2.13c-.59-.12-.9,0-.72.71-.39.21-1.07,0-1.05.81,0,.08-.43.16-.66.24-1-.05-1.25.92-1.85,1.43,0,0,0,.18,0,.28-.36.14-.9-.06-1,.59-.05.48-.54.26-.77.45-.85.07-1.23.78-1.74,1.3,0,0,0,.18.07.27-1,.06-1.31,1-1.92,1.47-.31.26-.65.32-.93.53-.59-.1-.86.11-.73.73l-.47.16c-.65-.14-.56.26-.48.66-.32.29-1,0-1,.83,0,.34-.64.11-.87.4-.72.41-1.65.6-1.82,1.63l-.32.05c-.4-.13-.54,0-.43.41-1.06.84-1.94,1.92-3.31,2.3-.36.1-.24.49-.36.73-.19,0-.4-.08-.55.13-.35.15-.25.52-.37.77a1.83,1.83,0,0,0-1.48.5l-2.7,2.3c-.3.15-.2.5-.35.72-1.21-.3-1.79.74-2.44,1.35-.3.29-1.34.26-.94,1.16a.61.61,0,0,0-.19.2c-.19-.06-.38-.12-.53.08-.43.11-.2.94-.86.79a1.35,1.35,0,0,0-1.11.45,1.72,1.72,0,0,1-1.85.86c0-.51-.07-1-.11-1.53a14,14,0,0,0,.05-2.82q0-50.09,0-100.17c0-.4,0-.8,0-1.2s.37-.51.69-.62l.37.18c-.08.43-.17.87.53.71l.35.21c-.15.53,0,.83.6.66l.33.2c0,1,.73.8,1.31.87a4.65,4.65,0,0,0,1.64,1.63c.39.25.4.62.68.84.12.22.28.16.44.06l.33.28c-.16.62.16.69.65.54l.26.33c-.35.83.6.8.87,1.07,1.05,1,2,2.24,3.48,2.75a.41.41,0,0,0,.29.33c.12.25.39.16.59.24,0,.3,0,.61.43.65s.52.37.58.72.39.25.64.16l.27.4a2.87,2.87,0,0,0,1.38,1.35s.09,0,.13,0l.27.26c.17.89.94,1.1,1.62,1.42a15.26,15.26,0,0,1,1.92,1.62c.94,1,2.05,1.89,3,2.93.11.12.38.09.57.13.05,1.05,1,1.22,1.66,1.64l.46.15c0,.34,0,.68.47.69.84.22,1.19,1,1.81,1.51s1,1.28,1.85,1.44a2.13,2.13,0,0,0,1.66,1.63c.71.32,1.14,1,1.75,1.43s1,1.3,1.89,1.49c-.15.54,0,.79.61.62a3.7,3.7,0,0,0,.28.28c-.16.59.07.77.63.6l.31.26c-.17.62.09.77.64.6l.33.24c-.23.71.32.66.72.75.74.06,1.16.72,1.57,1.11a57.22,57.22,0,0,0,6.15,5.38,20.1,20.1,0,0,1,3.08,2.92,3.69,3.69,0,0,0,1.78,1.43c-.13.58.16.69.65.59l.33.24c-.16.56.13.67.61.61l.4.2c-.07.42.15.59.54.62.83.24,1.15,1.08,1.81,1.53,1,.72,1.65,2,2.89,2.44-.26.64.11.71.6.66l.41.17c-.24.52.08.65.49.71.8.24,1.24.94,1.85,1.43s1,1.27,1.8,1.49a.58.58,0,0,0,.26.82c.4.24.23.54,0,.82h-.14l-.14,0c-.93.05-1.22.94-1.83,1.42,0,0,0,.18,0,.28-.31.15-.82-.05-.9.49s-.56.39-.86.55c-.49,0-.69.3-.69.76a.32.32,0,0,0-.21.08c-.71-.15-.9.26-.92.85a.55.55,0,0,0-.28.07c-.77-.18-.53.44-.63.79l-.84.22c-.4.07-.56.36-.68.7a.37.37,0,0,0-.26.1c-.56-.07-.78.2-.72.74a2.92,2.92,0,0,0-1.94,1.78l-.6.11-.29.15c-.61.46-1.53.53-1.82,1.4C399,274.44,399,275.5,398.29,275.58Z" transform="translate(-348.9 -118.01)"/><path class="cls-1" d="M413.91,191.31c0-.43.11-.85.16-1.27.6.08.92-.11.74-.78.05-.35.1-.69.14-1,.29-.11.92.21.7-.55.07-.41.15-.81.22-1.21.65.1.86-.19.73-.8.15-.32-.07-.84.5-.95s.36-.63.55-.94c.68.14.79-.26.74-.8a3,3,0,0,1,1.43-1.81c.39-.28.3-.69.58-.92.57.12.81-.06.62-.66.08-.09.17-.18.24-.27.57.12.81-.06.63-.66l.27-.26c.56.12.8-.06.61-.65l.28-.24c.53.1.82,0,.61-.64l.34-.2c.63.15.77-.13.59-.68.9-.08,1.43-.89,1.83-1.41s.83-.35,1.15-.64c.6.17.76-.08.6-.64.34-.27,1.08.06,1.09-.74,0-.21.28-.23.48-.25.58-.06,1.2,0,1.37-.83,0-.13.64-.13,1-.2.66.17.7-.18.56-.68.61-.3,1.41.14,2-.45.67.45.62-.09.67-.49l1.83-.26c.55.13.73-.22.83-.66l1.39-.11c1.19.35,2.07-.42,3.05-.84a44.59,44.59,0,0,0,5-.36,15.09,15.09,0,0,1,5.75.2,21.15,21.15,0,0,0,4,.17,3.07,3.07,0,0,0,2.73.84c.5.11,1.05-.08,1.52.25-.18.67.19.68.68.56l1.36.15c.19.12.45.18.5.46.1.51.45.39.78.33l1.23.23c-.24.64.11.71.61.63l1,.17c0,.45.1.89.74.75.38.18.95,0,1.12.65.12.5.72.27,1.09.42-.14.46.08.64.51.68.38.19.93.1,1,.77.05.4.58.18.84.37-.52.95,1,.61.85,1.33.72.09.66,1.2,1.5,1.14l.27.25c-.13.5-.06.83.58.68a6.73,6.73,0,0,0,1.34,1.87,20.63,20.63,0,0,1,3.11,5.4c.87,2.38,2.23,4.67,2.15,7.35a5.61,5.61,0,0,0,.8,3.85l.06,4.25a11.43,11.43,0,0,0,0,3l-.06,3.95c-.06.23-.05.53-.19.68a3,3,0,0,0-.59,2.61c-.06.67-.11,1.35-.17,2-1,.17-.77.91-.73,1.56l-.15,1.15a1.15,1.15,0,0,0-.78,1.53l-.15.93c-.42,0-.81,0-.81.6a1.28,1.28,0,0,1-.76,1.29c-.18.07-.12.35-.05.55l-.13.3c-.65-.06-.83.29-.75.87-.07.27-.15.54-.23.81-.19,0-.44-.22-.52.15l-.37.74c-.57-.1-.86.08-.72.7a.61.61,0,0,0-.17.19c-.55-.09-.87.07-.73.71a.55.55,0,0,0-.18.19c-.17,0-.36-.16-.46.11a3.82,3.82,0,0,1-2.22,1.57,1.33,1.33,0,0,0-1,.86c-.74,0-1.71-.17-2.11.31-.61.74-1.3.59-2,.64-2.92.24-5.84,0-8.76,0a.56.56,0,0,0-.2-.11c.11-.36.09-.68-.37-.72s-.84,0-1.26,0l-.23-.17c0-.14.08-.38,0-.4-.87-.43-1.36-1.54-2.53-1.42,0-.2-.07-.4-.1-.6-.26-.81-.82-1.27-1.24-.87-.78.75-1.8,1.3-2.22,2.39-1.09.36-2,1-3.1,1.41a4.43,4.43,0,0,1-1.94.54,9.54,9.54,0,0,0-2.28.39c-1.69.24-3.3-.39-5-.49a6,6,0,0,1-2.48-1.15,19.77,19.77,0,0,1-3.73-3.23c-.25-.25-.2-.53-.32-.78.08-.57-.07-1-.76-.86l-.21-.89c.21-.67-.19-.88-.74-1-.06-.37-.12-.74-.17-1.11a1.1,1.1,0,0,0-.76-1.56l-.12-2.06a6.46,6.46,0,0,0,0-2.36c-.12-2,.19-4.07,0-6.1l.15-2.07c1.09-.55.76-1.53.75-2.42.05-.39.11-.77.17-1.16.9-.2.83-.85.72-1.53.07-.38.14-.76.22-1.14.59.06.82-.15.54-.74.34-.3.17-.74.3-1.1.63-.22.63-.22.43-.68.39-.23.25-.69.43-1,.72-.16.72-.16.57-.74.16-.35.32-.69.47-1,.92-.18,1.12-1,1.41-1.67.16-.32.31-.63.47-.94.06.09.12.19.19,0,.38-.13.3-.53.47-.78a.28.28,0,0,0,.38-.12c.41-.1.35-.52.53-.78a.27.27,0,0,0,.38-.11c.5-.07.44-.67.82-.84a1.18,1.18,0,0,0,1.26-.44c.46-.46.95-1.07,1.52-1.18,1.22-.24,2.12-1.44,3.5-1.16a.46.46,0,0,0,.35-.21c.25-.63.83-.49,1.28-.51,1.75-.06,3.49-.11,5.24-.06s3.39-.25,5,.77c.7.45,1.83-.07,2.49.89.19.27,1.06.1,1.21.36.43.75,1,.62,1.65.59l.31.39a3.84,3.84,0,0,0,1.61,1.21l.37.25c.11.2.26.17.43.08a4.5,4.5,0,0,1,.15,2c-.61.16-.62.68-.66,1.15a24.49,24.49,0,0,0-.14,4.53c-.05,1.57-.11,3.15-.16,4.73-.58-.1-.63.27-.65.7a32.58,32.58,0,0,0-.07,4.42c0,1.29-.09,2.59-.12,3.88a7.37,7.37,0,0,1-.51,2.31,7.46,7.46,0,0,0-.14,4.26,3.41,3.41,0,0,0,1.69,1.92,3.5,3.5,0,0,0,2.92,0,7.65,7.65,0,0,0,2.25-2,14.8,14.8,0,0,0,2-3.38,6.87,6.87,0,0,0,.71-2.72c1.2-.48.77-1.5.79-2.38,0-1.2.07-2.41.11-3.61.38,0,.46-.3.51-.6a19,19,0,0,0,.07-5.78c0-.33-.19-.55-.56-.54-.05-1-.09-2-.13-3a5.17,5.17,0,0,0,0-1.92c0-.44-.3-.58-.71-.53-.05-.58-.11-1.17-.16-1.75s.13-1.32-.71-1.57l-.21-1.06c.33-.76-.24-.84-.74-1-.08-.27,0-.58-.21-.81-.41-.72-.43-1.77-1.58-1.86-.08-.27,0-.6-.24-.83-.25-1.06-1.31-1.56-1.75-2.49-.77.05-.74-1.2-1.6-1-.27-.16-.76,0-.82-.46s-.61-.39-.93-.54c.11-.78-.35-.88-1-.8l-.83-.11c.12-.81-.37-.86-1-.78l-1.62-.19c.26-.87-.28-.77-.81-.68l-2-.15c.16-.92-.55-.79-1-.79q-5.29,0-10.59,0a1.58,1.58,0,0,0-.73.1.45.45,0,0,0-.11.65l-.49.06c-.83.05-1.89-.21-2.42.21a4.28,4.28,0,0,1-2.12.83c-.32,0-.25.48-.26.76-.73.11-1.57-.06-1.92.9-.05.12-.46.1-.7.15-.57-.11-.88.08-.76.71-1-.13-1.29.83-1.82,1.27a14.45,14.45,0,0,0-2.45,2.43c-.7,1-1.92,1.53-2.16,2.81-.56-.1-.75.18-.7.7-.2.35,0,1-.64,1-.26,0-.27.24-.31.43-.11.55,0,1.26-.82,1.36.12,1.3-1.39,2.08-1.1,3.44-.67,0-.84.33-.73.91-.06.58-.12,1.17-.19,1.74-1.23,0-.65.94-.72,1.52L423,200c-.93.59-.88,1.5-.77,2.42a20.19,20.19,0,0,0-.1,3,7.15,7.15,0,0,0-.87,3.79c0,.94,0,1.89,0,2.83,0,1.14.06,2.29.13,3.43,0,.41,0,1,.68.93l.15,3.08c0,.64-.42,1.52.75,1.67,0,.64.1,1.28.16,1.92-.23.69.16.81.72.78,0,.44.1.87.16,1.31s0,1.07.73,1.16c0,.22.09.43.13.64-.12.73.43.43.75.49.07.34.14.68.2,1-.18.61.05.79.63.64.07.93.95,1.25,1.44,1.84a9.61,9.61,0,0,0,1.41,1.44c.64.5,1,1.4,2,1.43-.27.85.4.6.79.69.15,0,.37,0,.43.08.56.82,1.49.85,2.32,1.06-.24.67.14.71.64.61.74.26,1.73-.21,2.21.79,0,.09.27.12.42.12,3.6.12,7.12,1.38,10.77.82a6.29,6.29,0,0,0,1.83-.45c1-.47,2.26-.22,3.39-.35.37-.11,1.21.48.92-.62l2.07-.27a2,2,0,0,0,1.16,0c.39-.06.4-.35.25-.66a6.23,6.23,0,0,1,1.77-.17c1,0,1,0,1.16,1.16a2.58,2.58,0,0,0,0,1.14c0,.46.31.55.7.4.07.69.14,1.37.2,2.06a3.38,3.38,0,0,0,.06,1.55c.09.35.28.61.71.51a2.4,2.4,0,0,1-.05,1.38c-.19,0-.53,0-.56,0-.44,1-1.57,1.22-2.35,1.47-1.19.39-2.22,1.45-3.64,1.13a.41.41,0,0,0-.37.17c-.36.8-1.09.56-1.69.6a10.85,10.85,0,0,0-3.68.45,6.44,6.44,0,0,1-2.47.46c-2.1,0-4.19,0-6.29,0a3.48,3.48,0,0,1-1.9-.27,5,5,0,0,0-2.57-.58c-1,0-2.11.11-3-.73-.18-.17-.57-.13-.87-.16-.75-.09-1.52.1-2.13-.7-.23-.31-1-.33-1.57-.24-.71.11-.67-1.08-1.43-.72l-1.09-.17c0-.48,0-.94-.72-.7l-1.06-.21c0-.5,0-.95-.73-.72-.37-.22-1,0-1.07-.76,0-.35-.61-.15-.89-.33.08-.58-.1-.89-.74-.71a.39.39,0,0,0-.21-.13c0-.5-.07-.88-.72-.71-.81,0-.92-.82-1.44-1.18a3.57,3.57,0,0,1-1.46-1.71c.13-.58-.06-.86-.68-.73a.62.62,0,0,0-.17-.22c.18-.62,0-.88-.68-.72-.29-.33,0-1-.78-1.08-.32,0-.12-.63-.33-.91.23-.67-.08-.84-.69-.7l-.24-1.06c.21-.65-.06-.84-.67-.72-.08-.36-.15-.72-.23-1.08.21-.64-.08-.82-.67-.7-.06-.39-.12-.78-.17-1.16,0-.63.38-1.43-.74-1.52,0-.58-.11-1.16-.16-1.74s0-1.24-.78-1.48c0-.71-.07-1.41-.11-2.12a8.13,8.13,0,0,0-.35-3,.42.42,0,0,0-.44-.29c-.09-4.9-.16-9.8,0-14.7.47,0,.53-.3.62-.65a7.11,7.11,0,0,0,.15-2.6l.12-1.88c1.27-.12.68-1.07.77-1.71,0-.42.09-.84.13-1.26.76-.21.86-.77.75-1.44.05-.42.1-.83.14-1.25C414.1,192.53,413.88,191.84,413.91,191.31Zm34,27c.55.18.7-.08.66-.57.23-.25,0-.76.47-.86.63-.14.48-.66.6-1.06.58.05.86-.17.73-.78.2-.6-.07-1.36.46-1.83a1.59,1.59,0,0,0,.43-1.35c.05-2,.07-4,.14-6a5.23,5.23,0,0,1,.29-2.19,5.4,5.4,0,0,0,.48-2.44c0-1.14.05-2.29.07-3.44,0-2.4,0-2.41-2.44-2.34-.71,0-1.52-.16-2,.68-.06.12-.35.12-.53.17a4.88,4.88,0,0,0-3.08,3,1.52,1.52,0,0,1-.22.51,13.92,13.92,0,0,0-1.42,3.12l-.18,1.48c-.72.2-.8.41-.61,1.58l-.22,3.56c-.5.07-.78.29-.76.87.05,1,0,2,0,3a1.48,1.48,0,0,0,.74,1.36l.23,2c-.32.75.29.78.72,1A3.17,3.17,0,0,0,447,219c.35,0,.63-.05.7-.45Z" transform="translate(-348.9 -118.01)"/></svg>