<?xml version="1.0" encoding="utf-8"?>
<!-- Generator: Adobe Illustrator 28.0.0, SVG Export Plug-In . SVG Version: 6.00 Build 0)  -->
<svg version="1.1" id="Layer_1" xmlns="http://www.w3.org/2000/svg" xmlns:xlink="http://www.w3.org/1999/xlink" x="0px" y="0px"
	 viewBox="0 0 80 80" style="enable-background:new 0 0 80 80;" xml:space="preserve">
<g id="Group_20773">
	<path id="Path_24331" d="M56.61,70.13H6.64v-3.32c0-0.74,0.04-1.49-0.01-2.23c-0.17-2.76,1.12-4.8,3.15-6.46
		c3.25-2.48,6.99-4.22,10.98-5.11c4.29-1.27,8.77-1.77,13.23-1.46c6.71,0.65,13.21,2.08,18.84,6.1c2.57,1.83,4.01,4.23,3.8,7.5
		C56.52,66.78,56.61,68.42,56.61,70.13"/>
	<path id="Path_24332" d="M44.14,29.51c0.37,0.02,0.67,0.01,0.96,0.05c0.84,0.08,1.47,0.82,1.41,1.66c-0.06,0.81-0.75,1.43-1.56,1.4
		c-2.77,0.02-5.53,0.03-8.3,0.03c-5.89,0-11.78,0-17.67,0c-0.3,0.01-0.59-0.01-0.89-0.05c-0.72-0.06-1.27-0.66-1.27-1.38
		c-0.11-0.71,0.35-1.39,1.05-1.56c0.41-0.09,0.83-0.16,1.25-0.2c0.16-4.59,2.25-8.05,6.26-10.68c0,1.02-0.01,1.82,0,2.61
		c0.03,1.2,0.61,1.88,1.57,1.88c0.96-0.01,1.56-0.72,1.56-1.88c0.01-1.28,0-2.55,0-3.86c2.03-0.65,4.21-0.66,6.24-0.03
		c0,1.31-0.01,2.61,0,3.92c0.01,1.17,0.6,1.86,1.57,1.85c0.94-0.01,1.53-0.66,1.56-1.8c0.03-0.82,0.01-1.64,0.01-2.68
		C41.69,21.05,44.06,25.1,44.14,29.51"/>
	<path id="Path_24333" d="M64.37,35.79h-1.16c-1.63,0-1.3,0.15-1.62-1.42c-0.04-0.17-0.03-0.36-0.05-0.53
		c-0.04-1.14-0.85-2.1-1.96-2.34c-0.38-0.01-0.76,0.08-1.09,0.27c-2.67,1.02-1.92,1.07-3.33-1.18c-0.39-0.63-0.73-1.29-1.12-1.93
		c-0.26-0.3-0.23-0.76,0.07-1.02c0.05-0.04,0.11-0.08,0.17-0.11c0.25-0.22,0.51-0.41,0.78-0.59c1.33-0.57,1.31-1.72,1.27-2.88
		c-0.02-0.17-0.1-0.32-0.22-0.45c-0.17-0.17-0.35-0.32-0.55-0.45c-1.89-1.47-1.89-1.47-0.7-3.5c0.37-0.64,0.76-1.27,1.12-1.93
		c0.12-0.37,0.52-0.57,0.89-0.44c0.07,0.02,0.14,0.06,0.2,0.11c0.42,0.22,0.9,0.32,1.31,0.54c0.65,0.36,1.45,0.32,2.05-0.12
		c0.63-0.31,1.04-0.94,1.08-1.64c0.31-2.24,0.33-2.24,2.57-2.24c0.74,0,1.49,0.02,2.23,0c0.42-0.08,0.84,0.2,0.92,0.62
		c0.01,0.07,0.02,0.13,0.01,0.2c0.08,0.35,0.13,0.7,0.15,1.06c-0.14,1.34,0.74,1.9,1.75,2.31c0.33,0.08,0.67,0.06,0.99-0.06
		c0.82-0.23,1.73-0.89,2.38-0.68c0.6,0.2,0.93,1.29,1.36,1.99c0.32,0.53,0.61,1.09,0.93,1.62c0.28,0.33,0.24,0.82-0.09,1.1
		c-0.05,0.05-0.11,0.08-0.18,0.11c-0.2,0.18-0.41,0.34-0.63,0.49c-1.25,0.6-1.46,1.66-1.27,2.88c0.06,0.28,0.21,0.53,0.42,0.72
		c0.44,0.39,0.92,0.76,1.41,1.09c0.46,0.2,0.66,0.73,0.46,1.19c-0.04,0.08-0.09,0.16-0.15,0.23c-0.64,1.04-1.23,2.1-1.82,3.17
		c-0.14,0.38-0.55,0.57-0.93,0.44c-0.03-0.01-0.07-0.03-0.1-0.04c-0.31-0.09-0.62-0.22-0.91-0.37c-1.14-0.77-2.16-0.43-3.14,0.29
		c-0.18,0.14-0.31,0.33-0.38,0.55c-0.04,0.23-0.07,0.47-0.08,0.71c-0.49,2.58,0.22,2.22-2.52,2.24
		C64.73,35.79,64.55,35.79,64.37,35.79 M64.44,20.96c-2.16,0-3.92,1.76-3.92,3.92c0,2.16,1.76,3.92,3.92,3.92
		c2.16,0,3.92-1.76,3.92-3.92c0-0.01,0-0.02,0-0.03c0-2.15-1.75-3.9-3.91-3.89C64.44,20.96,64.44,20.96,64.44,20.96"/>
	<path id="Path_24334" d="M19.66,35.83h23.89c-0.52,3.78-4.93,8.86-10.96,9.3C25.49,45.65,20.48,40.23,19.66,35.83"/>
	<path id="Path_24335" d="M65.87,41.27c-0.32,0.28-0.62,0.58-0.95,0.84c-0.54,0.3-0.89,0.85-0.93,1.47
		c-0.04,0.93,0.51,1.27,1.09,1.64c0.63,0.41,0.75,0.83,0.33,1.46c-0.37,0.54-0.69,1.11-0.96,1.7c-0.31,0.67-0.71,0.75-1.35,0.45
		s-1.23-0.76-2.04-0.21c-0.45,0.27-0.74,0.75-0.77,1.27c-0.24,1.8-0.05,1.45-1.6,1.5c-0.06,0-0.12,0-0.18,0
		c-2.05,0-2.05,0-2.46-1.96c-0.29-0.71-1.02-1.12-1.78-1c-1.84,0.63-1.84,0.63-2.82-1.02c-0.03-0.05-0.06-0.1-0.09-0.15
		c-0.97-1.7-0.96-1.3,0.49-2.39c0.69-0.48,0.86-1.44,0.38-2.13c-0.1-0.14-0.22-0.27-0.37-0.37c-1.53-1.25-1.41-0.71-0.49-2.4
		c0.04-0.08,0.09-0.16,0.13-0.23c0.92-1.6,0.92-1.6,2.69-0.95c0.81,0.2,1.64-0.28,1.86-1.09c0.34-1.89,0.34-1.89,2.29-1.89h0.18
		c1.59,0,1.59,0,1.83,1.56c0.08,0.86,0.84,1.5,1.7,1.42c0.19-0.02,0.38-0.07,0.55-0.15c1.44-0.58,1.44-0.58,2.19,0.73
		C65.13,39.96,65.46,40.55,65.87,41.27 M55.63,43.51c-0.09,1.39,0.97,2.58,2.36,2.67c0.05,0,0.09,0,0.14,0
		c1.42,0.06,2.63-1.05,2.68-2.48c0-0.01,0-0.02,0-0.03c-0.03-1.43-1.15-2.6-2.57-2.68C56.84,41.02,55.7,42.12,55.63,43.51"/>
</g>
</svg>
