<svg id="Layer_1" data-name="Layer 1" xmlns="http://www.w3.org/2000/svg" viewBox="0 0 557.72 201.31"><defs><style>.cls-1{fill:#001b7f;}.cls-2{fill:#231f20;}.cls-3{fill:#5a8dff;}</style></defs><title>J28-D_Logo</title><path class="cls-1" d="M498.56,254.15H562.5q18.9,0,30.54,5.13A49.66,49.66,0,0,1,612.28,274a60.94,60.94,0,0,1,11,22.33,103.55,103.55,0,0,1,3.42,27q0,22.32-5.08,34.63a57.28,57.28,0,0,1-14.11,20.61,46.13,46.13,0,0,1-19.38,11.07,100,100,0,0,1-25.65,3.8H498.56Zm43,31.55v76.09h10.54q13.5,0,19.19-3t8.93-10.45q3.24-7.46,3.23-24.18,0-22.12-7.22-30.3t-23.94-8.17Z" transform="translate(-70.83 -254.07)"/><path class="cls-1" d="M137.52,255.22h41.76v73.26q0,23.07-4.09,35.12T158.72,384q-12.36,8.37-31.68,8.37-20.43,0-31.65-5.52A39.79,39.79,0,0,1,78.05,370.7q-6.12-10.62-7.22-26.26L110.66,339q.09,8.91,1.57,13.24a14.37,14.37,0,0,0,5,7A11.39,11.39,0,0,0,124,361q7,0,10.26-5.19t3.26-17.51Z" transform="translate(-70.83 -254.07)"/><path class="cls-1" d="M301.64,392.37H189.23A70.42,70.42,0,0,1,201,361.05q9.79-14.67,36.75-34.64,16.47-12.23,21.06-18.58t4.6-12.05a14,14,0,0,0-4.55-10.53,17.35,17.35,0,0,0-23.18.14q-4.56,4.5-6.12,15.91l-37.53-3q2.2-15.82,8.1-24.7A37.56,37.56,0,0,1,216.69,260q10.71-4.72,29.67-4.73,19.77,0,30.77,4.5a37.48,37.48,0,0,1,17.29,13.85,36.56,36.56,0,0,1,6.3,20.92A42.88,42.88,0,0,1,293.5,318q-7.23,11.23-26.26,24.65-11.33,7.83-15.13,10.95t-9,8.19h58.5Z" transform="translate(-70.83 -254.07)"/><path class="cls-1" d="M333.18,318.73q-8.82-4.68-12.88-10.48A31.13,31.13,0,0,1,314.79,290q0-16.92,15.91-27.68,12.42-8.28,32.84-8.28,27,0,40,10.3t12.92,25.94a30.67,30.67,0,0,1-5.15,17q-3.87,5.88-12.14,11.4,10.94,5.25,16.32,13.89a35.49,35.49,0,0,1,5.39,19.14,39.81,39.81,0,0,1-4.65,18.9,37.89,37.89,0,0,1-11.41,13.57,46.22,46.22,0,0,1-16.83,7,97.67,97.67,0,0,1-21.48,2.26q-21.44,0-32.74-5.06a37,37,0,0,1-17.21-14.9,42,42,0,0,1-5.88-22q0-11.86,5.52-20.1t17-12.74M348,350.28q0,8.93,5.43,14.58t12.42,5.66q6.71,0,12.05-5.75t5.33-14.58q0-8.93-5.38-14.62a16.64,16.64,0,0,0-12.46-5.71,16.23,16.23,0,0,0-12.19,5.52q-5.2,5.52-5.2,14.9m2-58q0,7,4.37,11.27T366,307.79a14.14,14.14,0,0,0,10.58-4.24,15,15,0,0,0,4.14-10.94,15.46,15.46,0,0,0-4.32-11.36,15.3,15.3,0,0,0-26.4,11" transform="translate(-70.83 -254.07)"/><rect class="cls-1" x="357.59" y="55.24" width="54.46" height="28.97"/><path class="cls-2" d="M71.45,444.93V404.29h7.37q4.8,0,7.19,6.08a38.22,38.22,0,0,1,2.39,14.05q0,9.1-2.56,14.81t-6.66,5.7Zm5.85-9.35h1.52c1,0,1.78-1,2.45-3a26.67,26.67,0,0,0,1-8.18,29,29,0,0,0-.89-7.65c-.59-2.15-1.44-3.22-2.56-3.22H77.3Z" transform="translate(-70.83 -254.07)"/><path class="cls-2" d="M105,444.93h-5.3a42.29,42.29,0,0,1-.2-4.23q-1.5,4.85-4.56,4.85a4,4,0,0,1-3.76-2.74,14.86,14.86,0,0,1-1.25-6.28,13.4,13.4,0,0,1,2-7.75c1.36-2,3.78-3.16,7.25-3.56v-.68a5.52,5.52,0,0,0-.42-2.65,1.4,1.4,0,0,0-1.25-.66c-1.29,0-2,1.1-2.15,3.31l-5.08-1q1.08-9.5,7.41-9.49a6.87,6.87,0,0,1,3.16.73,5.29,5.29,0,0,1,2.27,2.27,10.45,10.45,0,0,1,1.12,3.28,47.48,47.48,0,0,1,.29,6.64V439A35.39,35.39,0,0,0,105,444.93ZM99.2,430.76q-3.56.8-3.56,4.85c0,1.82.47,2.74,1.41,2.74a1.81,1.81,0,0,0,1.53-1.13c.41-.76.62-2.43.62-5Z" transform="translate(-70.83 -254.07)"/><path class="cls-2" d="M116.21,414.65v7.71h-2.84v11.16c0,1.53.14,2.44.41,2.73a1.15,1.15,0,0,0,.84.43,3.46,3.46,0,0,0,1.59-.51v8.46a8.53,8.53,0,0,1-3.24.68,4,4,0,0,1-3.78-2.35q-1.2-2.35-1.2-7.5v-13.1h-2.12v-7.71H108l.08-9.85,5.29-.18v10Z" transform="translate(-70.83 -254.07)"/><path class="cls-2" d="M132.58,444.93h-5.31c-.13-1.29-.19-2.7-.19-4.23q-1.52,4.85-4.57,4.85a4,4,0,0,1-3.76-2.74,14.86,14.86,0,0,1-1.25-6.28,13.4,13.4,0,0,1,2-7.75c1.37-2,3.78-3.16,7.26-3.56v-.68a5.48,5.48,0,0,0-.43-2.65,1.39,1.39,0,0,0-1.25-.66c-1.28,0-2,1.1-2.15,3.31l-5.08-1c.72-6.33,3.2-9.49,7.41-9.49a6.84,6.84,0,0,1,3.16.73,5.24,5.24,0,0,1,2.27,2.27,10.47,10.47,0,0,1,1.13,3.28,49.71,49.71,0,0,1,.28,6.64V439A34.25,34.25,0,0,0,132.58,444.93Zm-5.78-14.17c-2.38.53-3.56,2.15-3.56,4.85,0,1.82.47,2.74,1.41,2.74a1.81,1.81,0,0,0,1.52-1.13q.63-1.14.63-5Z" transform="translate(-70.83 -254.07)"/><path class="cls-2" d="M163.1,404.29v40.64h-5.44V415.87l-3.52,29.06h-3.71l-3.67-29.06v29.06h-4.38V404.29H150l2.76,21.59,2.64-21.59Z" transform="translate(-70.83 -254.07)"/><path class="cls-2" d="M180.53,444.93h-5.3a42.29,42.29,0,0,1-.2-4.23c-1,3.23-2.53,4.85-4.56,4.85-1.68,0-2.93-.91-3.77-2.74a15,15,0,0,1-1.25-6.28,13.4,13.4,0,0,1,2.05-7.75c1.36-2,3.78-3.16,7.25-3.56v-.68a5.52,5.52,0,0,0-.42-2.65,1.4,1.4,0,0,0-1.25-.66c-1.29,0-2,1.1-2.15,3.31l-5.08-1q1.08-9.5,7.41-9.49a6.79,6.79,0,0,1,3.15.73,5.26,5.26,0,0,1,2.28,2.27,10.45,10.45,0,0,1,1.12,3.28,49.15,49.15,0,0,1,.29,6.64V439A34.35,34.35,0,0,0,180.53,444.93Zm-5.78-14.17q-3.56.8-3.56,4.85c0,1.82.47,2.74,1.41,2.74a1.79,1.79,0,0,0,1.52-1.13q.63-1.14.63-5Z" transform="translate(-70.83 -254.07)"/><path class="cls-2" d="M196.85,444.93h-5.57V425.88a8,8,0,0,0-.34-3c-.23-.44-.51-.66-.86-.66q-1.52,0-1.52,4.53v18.19H183V414.65h5.17v4.29c.76-3.28,2.12-4.91,4.09-4.91a3.29,3.29,0,0,1,2.61,1.26,7.52,7.52,0,0,1,1.53,3.28,35.57,35.57,0,0,1,.46,7Z" transform="translate(-70.83 -254.07)"/><path class="cls-2" d="M214.1,444.93h-5.31a42.29,42.29,0,0,1-.2-4.23q-1.5,4.85-4.56,4.85a4,4,0,0,1-3.76-2.74,14.86,14.86,0,0,1-1.25-6.28,13.4,13.4,0,0,1,2-7.75c1.37-2,3.78-3.16,7.26-3.56v-.68a5.48,5.48,0,0,0-.43-2.65,1.39,1.39,0,0,0-1.25-.66c-1.28,0-2,1.1-2.15,3.31l-5.08-1c.72-6.33,3.2-9.49,7.41-9.49a6.84,6.84,0,0,1,3.16.73,5.24,5.24,0,0,1,2.27,2.27,10.47,10.47,0,0,1,1.13,3.28,49.71,49.71,0,0,1,.28,6.64V439A34.25,34.25,0,0,0,214.1,444.93Zm-5.78-14.17c-2.38.53-3.56,2.15-3.56,4.85,0,1.82.47,2.74,1.41,2.74a1.81,1.81,0,0,0,1.52-1.13q.63-1.14.63-5Z" transform="translate(-70.83 -254.07)"/><path class="cls-2" d="M231.35,407.78l-.14,8.12-.26,0a10.52,10.52,0,0,0-1.08-.09,1.41,1.41,0,0,0-1.56,1.1,13.49,13.49,0,0,1,1.59,6.76c0,3.1-.57,5.42-1.72,7a5.53,5.53,0,0,1-4.69,2.34l-.72-.06-.65-.06c-.9,0-1.35.5-1.35,1.49s.4,1.34,1.2,1.4l4.57.41a4.36,4.36,0,0,1,3.66,3,16.21,16.21,0,0,1,1.17,6.4,13.08,13.08,0,0,1-1.74,7.1c-1.16,1.84-3.42,2.75-6.77,2.75q-7.74,0-7.75-7.59,0-4.14,2.06-5.77a8.31,8.31,0,0,1-1.33-4.73q0-4.47,2.72-6.73-2.26-2.12-2.27-7a11.57,11.57,0,0,1,1.84-7,5.93,5.93,0,0,1,5.05-2.5,5.77,5.77,0,0,1,2.67.62c.33-4.74,1.5-7.11,3.53-7.11A11.39,11.39,0,0,1,231.35,407.78Zm-9.58,36.75c-.2,0-.41,0-.61,0-1,0-1.44.64-1.44,1.91a2.24,2.24,0,0,0,1.1,2.27,7.17,7.17,0,0,0,2.92.5c1.16,0,1.9-.21,2.23-.62a2.72,2.72,0,0,0,.5-1.73,3.27,3.27,0,0,0-.23-1.29,1.16,1.16,0,0,0-1.06-.61Zm1.43-17.2q1.62,0,1.62-3.66c0-2.5-.56-3.75-1.66-3.75s-1.65,1.27-1.65,3.81S222.07,427.33,223.2,427.33Z" transform="translate(-70.83 -254.07)"/><path class="cls-2" d="M242.21,434.06l5.2.74a18.1,18.1,0,0,1-2.36,7.61,5.75,5.75,0,0,1-5.11,3.14q-3.58,0-5.73-4.42a25.18,25.18,0,0,1-2.13-11,27.76,27.76,0,0,1,2.11-11.46c1.4-3.12,3.28-4.67,5.62-4.67s4.11,1.47,5.51,4.4,2.1,6.94,2.1,12c0,.42,0,1,0,1.73H237.9a15.8,15.8,0,0,0,.47,4.24,1.72,1.72,0,0,0,1.71,1.38Q241.9,437.78,242.21,434.06Zm-.37-7.86a10.17,10.17,0,0,0-.58-4.12c-.38-.7-.84-1.06-1.4-1.06-1.32,0-2,1.73-2,5.18Z" transform="translate(-70.83 -254.07)"/><path class="cls-2" d="M271.11,444.93h-5.4V426a9.42,9.42,0,0,0-.26-2.66.93.93,0,0,0-.91-.76c-1,0-1.57,1.62-1.57,4.85v17.51h-5.34V426q0-3.63-1.32-3.63T255,426v18.94H249.6V414.65h5v4.08c.89-3.14,2.19-4.7,3.89-4.7s3.17,1.56,4,4.7c.92-3.14,2.33-4.7,4.24-4.7a3.09,3.09,0,0,1,2.41,1.22,7.61,7.61,0,0,1,1.51,3.14,27.6,27.6,0,0,1,.46,5.94Z" transform="translate(-70.83 -254.07)"/><path class="cls-2" d="M283.44,434.06l5.19.74a18.09,18.09,0,0,1-2.35,7.61,5.75,5.75,0,0,1-5.11,3.14c-2.4,0-4.3-1.47-5.73-4.42a25.18,25.18,0,0,1-2.13-11,27.93,27.93,0,0,1,2.1-11.46c1.41-3.12,3.28-4.67,5.63-4.67s4.11,1.47,5.51,4.4,2.1,6.94,2.1,12c0,.42,0,1,0,1.73h-9.5a15.4,15.4,0,0,0,.47,4.24,1.72,1.72,0,0,0,1.71,1.38Q283.13,437.78,283.44,434.06Zm-.38-7.86a10.22,10.22,0,0,0-.57-4.12c-.38-.7-.84-1.06-1.4-1.06q-2,0-2,5.18Z" transform="translate(-70.83 -254.07)"/><path class="cls-2" d="M304.69,444.93h-5.57V425.88a8,8,0,0,0-.34-3,1,1,0,0,0-.86-.66c-1,0-1.52,1.51-1.52,4.53v18.19h-5.57V414.65H296v4.29c.76-3.28,2.13-4.91,4.09-4.91a3.3,3.3,0,0,1,2.62,1.26,7.75,7.75,0,0,1,1.53,3.28,35.57,35.57,0,0,1,.46,7Z" transform="translate(-70.83 -254.07)"/><path class="cls-2" d="M316.39,414.65v7.71h-2.83v11.16c0,1.53.13,2.44.4,2.73a1.15,1.15,0,0,0,.84.43,3.46,3.46,0,0,0,1.59-.51v8.46a8.53,8.53,0,0,1-3.24.68,4,4,0,0,1-3.78-2.35q-1.2-2.35-1.2-7.5v-13.1h-2.12v-7.71h2.12l.08-9.85,5.3-.18v10Z" transform="translate(-70.83 -254.07)"/><path class="cls-2" d="M382.82,435.22v9.71H368.48V404.29h14.34v9.38h-8.6v5.89h6.95v9h-6.95v6.64Z" transform="translate(-70.83 -254.07)"/><path class="cls-2" d="M398.8,444.93h-5.57V425.88a8,8,0,0,0-.34-3c-.23-.44-.51-.66-.86-.66q-1.51,0-1.52,4.53v18.19h-5.57V414.65h5.16v4.29c.77-3.28,2.13-4.91,4.1-4.91a3.29,3.29,0,0,1,2.61,1.26,7.75,7.75,0,0,1,1.53,3.28,35.57,35.57,0,0,1,.46,7Z" transform="translate(-70.83 -254.07)"/><path class="cls-2" d="M416.53,407.78l-.14,8.12-.26,0a10.31,10.31,0,0,0-1.08-.09,1.41,1.41,0,0,0-1.56,1.1,13.49,13.49,0,0,1,1.59,6.76c0,3.1-.57,5.42-1.72,7a5.51,5.51,0,0,1-4.69,2.34l-.72-.06-.65-.06c-.9,0-1.35.5-1.35,1.49s.4,1.34,1.2,1.4l4.57.41a4.36,4.36,0,0,1,3.66,3,16.21,16.21,0,0,1,1.17,6.4,13.08,13.08,0,0,1-1.74,7.1c-1.16,1.84-3.42,2.75-6.77,2.75q-7.74,0-7.74-7.59,0-4.14,2.05-5.77a8.31,8.31,0,0,1-1.33-4.73q0-4.47,2.72-6.73-2.26-2.12-2.27-7a11.57,11.57,0,0,1,1.84-7,5.93,5.93,0,0,1,5.06-2.5,5.76,5.76,0,0,1,2.66.62q.5-7.11,3.53-7.11A11.28,11.28,0,0,1,416.53,407.78ZM407,444.53c-.21,0-.41,0-.62,0-1,0-1.44.64-1.44,1.91a2.24,2.24,0,0,0,1.1,2.27,7.17,7.17,0,0,0,2.92.5c1.16,0,1.9-.21,2.23-.62a2.72,2.72,0,0,0,.5-1.73,3.27,3.27,0,0,0-.23-1.29,1.16,1.16,0,0,0-1.06-.61Zm1.42-17.2q1.62,0,1.62-3.66c0-2.5-.56-3.75-1.66-3.75s-1.65,1.27-1.65,3.81S407.25,427.33,408.38,427.33Z" transform="translate(-70.83 -254.07)"/><path class="cls-2" d="M423.58,403v9.41H418V403Zm0,11.64v30.28H418V414.65Z" transform="translate(-70.83 -254.07)"/><path class="cls-2" d="M440.38,444.93h-5.57V425.88a8.24,8.24,0,0,0-.34-3,1,1,0,0,0-.86-.66q-1.53,0-1.53,4.53v18.19h-5.57V414.65h5.17v4.29c.76-3.28,2.13-4.91,4.09-4.91a3.31,3.31,0,0,1,2.62,1.26,7.75,7.75,0,0,1,1.53,3.28,36.39,36.39,0,0,1,.46,7Z" transform="translate(-70.83 -254.07)"/><path class="cls-2" d="M452.69,434.06l5.2.74a18.24,18.24,0,0,1-2.36,7.61,5.75,5.75,0,0,1-5.11,3.14c-2.4,0-4.3-1.47-5.73-4.42a25.18,25.18,0,0,1-2.13-11,27.76,27.76,0,0,1,2.11-11.46c1.4-3.12,3.28-4.67,5.62-4.67s4.11,1.47,5.51,4.4,2.1,6.94,2.1,12c0,.42,0,1,0,1.73h-9.51a15.8,15.8,0,0,0,.47,4.24,1.72,1.72,0,0,0,1.71,1.38Q452.38,437.78,452.69,434.06Zm-.37-7.86a10.17,10.17,0,0,0-.58-4.12c-.38-.7-.84-1.06-1.4-1.06q-2,0-2,5.18Z" transform="translate(-70.83 -254.07)"/><path class="cls-2" d="M469.46,434.06l5.19.74a18.09,18.09,0,0,1-2.35,7.61,5.76,5.76,0,0,1-5.12,3.14q-3.58,0-5.72-4.42a25.17,25.17,0,0,1-2.14-11,27.93,27.93,0,0,1,2.11-11.46c1.41-3.12,3.28-4.67,5.63-4.67s4.11,1.47,5.51,4.4,2.1,6.94,2.1,12c0,.42,0,1,0,1.73h-9.5a15.4,15.4,0,0,0,.47,4.24,1.72,1.72,0,0,0,1.7,1.38C468.53,437.78,469.25,436.54,469.46,434.06Zm-.38-7.86a10.22,10.22,0,0,0-.57-4.12,1.66,1.66,0,0,0-1.4-1.06q-2,0-2,5.18Z" transform="translate(-70.83 -254.07)"/><path class="cls-2" d="M482.18,444.93h-5.33V414.65h4.63v6.25c.53-4.54,1.77-6.81,3.7-6.81a3.75,3.75,0,0,1,.81.12v10.56a2.46,2.46,0,0,0-1.05-.29q-2.76,0-2.76,6.57Z" transform="translate(-70.83 -254.07)"/><path class="cls-2" d="M493.32,403v9.41h-5.57V403Zm0,11.64v30.28h-5.57V414.65Z" transform="translate(-70.83 -254.07)"/><path class="cls-2" d="M510.11,444.93h-5.57V425.88a8,8,0,0,0-.34-3c-.23-.44-.51-.66-.86-.66q-1.51,0-1.52,4.53v18.19h-5.57V414.65h5.17v4.29c.76-3.28,2.12-4.91,4.09-4.91a3.33,3.33,0,0,1,2.62,1.26,7.62,7.62,0,0,1,1.52,3.28,35.57,35.57,0,0,1,.46,7Z" transform="translate(-70.83 -254.07)"/><path class="cls-2" d="M527.85,407.78l-.14,8.12-.27,0a10.38,10.38,0,0,0-1.07-.09,1.42,1.42,0,0,0-1.57,1.1,13.49,13.49,0,0,1,1.59,6.76c0,3.1-.57,5.42-1.72,7A5.51,5.51,0,0,1,520,433l-.73-.06-.64-.06c-.91,0-1.36.5-1.36,1.49s.4,1.34,1.2,1.4l4.57.41a4.34,4.34,0,0,1,3.66,3,16.21,16.21,0,0,1,1.17,6.4,13.08,13.08,0,0,1-1.74,7.1c-1.16,1.84-3.41,2.75-6.76,2.75q-7.75,0-7.75-7.59,0-4.14,2-5.77a8.39,8.39,0,0,1-1.33-4.73q0-4.47,2.73-6.73-2.28-2.12-2.28-7a11.57,11.57,0,0,1,1.85-7,5.91,5.91,0,0,1,5-2.5,5.73,5.73,0,0,1,2.66.62q.49-7.11,3.54-7.11A11.5,11.5,0,0,1,527.85,407.78Zm-9.58,36.75c-.21,0-.41,0-.62,0-.95,0-1.43.64-1.43,1.91a2.24,2.24,0,0,0,1.09,2.27,7.22,7.22,0,0,0,2.93.5,2.86,2.86,0,0,0,2.22-.62,2.72,2.72,0,0,0,.5-1.73,3.47,3.47,0,0,0-.22-1.29,1.18,1.18,0,0,0-1.07-.61Zm1.42-17.2q1.62,0,1.62-3.66c0-2.5-.55-3.75-1.66-3.75s-1.65,1.27-1.65,3.81S518.57,427.33,519.69,427.33Z" transform="translate(-70.83 -254.07)"/><path class="cls-2" d="M536.67,444.93V404.29h9.67c2,0,3.48,1.09,4.4,3.25a18.76,18.76,0,0,1,1.38,7.41,17.5,17.5,0,0,1-.8,5.49,5.7,5.7,0,0,1-2.39,3.38q3.69,1.9,3.7,9.47a23.37,23.37,0,0,1-1.31,8.08q-1.3,3.56-5.58,3.56Zm5.39-25.07h2.71a1.48,1.48,0,0,0,1.44-1.1,6.75,6.75,0,0,0,.41-2.35c0-2.26-.65-3.4-2-3.4h-2.61Zm0,16h2.85a1.64,1.64,0,0,0,1.55-1.12,6.11,6.11,0,0,0,.5-2.51,6.74,6.74,0,0,0-.48-2.58,1.77,1.77,0,0,0-1.77-1.18h-2.65Z" transform="translate(-70.83 -254.07)"/><path class="cls-2" d="M560.18,444.93h-5.33V414.65h4.63v6.25c.53-4.54,1.77-6.81,3.7-6.81a3.75,3.75,0,0,1,.81.12v10.56a2.46,2.46,0,0,0-1-.29q-2.76,0-2.76,6.57Z" transform="translate(-70.83 -254.07)"/><path class="cls-2" d="M580.06,444.93h-5.31c-.12-1.29-.19-2.7-.19-4.23q-1.51,4.85-4.57,4.85a4,4,0,0,1-3.76-2.74,15,15,0,0,1-1.25-6.28,13.32,13.32,0,0,1,2-7.75c1.36-2,3.78-3.16,7.25-3.56v-.68a5.36,5.36,0,0,0-.43-2.65,1.38,1.38,0,0,0-1.24-.66c-1.29,0-2,1.1-2.15,3.31l-5.09-1q1.1-9.5,7.42-9.49a6.82,6.82,0,0,1,3.15.73,5.26,5.26,0,0,1,2.28,2.27,10.45,10.45,0,0,1,1.12,3.28,49.15,49.15,0,0,1,.29,6.64V439A34.35,34.35,0,0,0,580.06,444.93Zm-5.78-14.17q-3.56.8-3.56,4.85c0,1.82.47,2.74,1.41,2.74a1.8,1.8,0,0,0,1.52-1.13q.63-1.14.63-5Z" transform="translate(-70.83 -254.07)"/><path class="cls-2" d="M596.38,444.93h-5.57V425.88a8,8,0,0,0-.34-3,1,1,0,0,0-.86-.66q-1.51,0-1.52,4.53v18.19h-5.57V414.65h5.16v4.29c.77-3.28,2.13-4.91,4.09-4.91a3.3,3.3,0,0,1,2.62,1.26,7.75,7.75,0,0,1,1.53,3.28,35.57,35.57,0,0,1,.46,7Z" transform="translate(-70.83 -254.07)"/><path class="cls-2" d="M607.87,432.72l4.75.86a21.46,21.46,0,0,1-2.09,8.64q-1.75,3.33-4.65,3.33-3.25,0-5.29-4.36a26.64,26.64,0,0,1-2-11.18,28.1,28.1,0,0,1,2-11.47q2-4.52,5.24-4.51c1.91,0,3.46,1.13,4.66,3.41a20.66,20.66,0,0,1,2.07,8.61l-4.87.87q-.31-4.8-1.71-4.8c-.59,0-1,.58-1.3,1.75a29.76,29.76,0,0,0-.41,6.05,26.41,26.41,0,0,0,.41,5.51c.27,1.19.75,1.79,1.43,1.79C607.09,437.22,607.69,435.72,607.87,432.72Z" transform="translate(-70.83 -254.07)"/><path class="cls-2" d="M628.56,444.93H623V426.71a15.26,15.26,0,0,0-.26-3.44c-.17-.63-.5-.94-1-.94a1.21,1.21,0,0,0-1,.73,3.58,3.58,0,0,0-.49,1.5c0,.52-.07,1.6-.07,3.25v17.12h-5.57V404.29h5.57v13.93c1-2.79,2.32-4.19,3.94-4.19a3,3,0,0,1,2.15.91,5.86,5.86,0,0,1,1.43,2.33,13.63,13.63,0,0,1,.68,2.77,47.45,47.45,0,0,1,.18,5.18Z" transform="translate(-70.83 -254.07)"/><polygon class="cls-1" points="287.31 177.23 275.02 177.23 275.02 189.28 266.44 189.28 266.44 177.23 254.16 177.23 254.16 169.42 266.44 169.42 266.44 157.37 275.02 157.37 275.02 169.42 287.31 169.42 287.31 177.23"/><path class="cls-3" d="M514.54,380.11a3.75,3.75,0,0,0-3.71,3.26H367.9a3.76,3.76,0,1,0,0,1H510.83a3.75,3.75,0,1,0,3.71-4.26Z" transform="translate(-70.83 -254.07)"/><path class="cls-3" d="M513.35,322.76a3.75,3.75,0,0,0-7.47-.5H480.53a3.76,3.76,0,1,0,0,1h25.35a3.75,3.75,0,0,0,7.47-.5Z" transform="translate(-70.83 -254.07)"/><path class="cls-3" d="M503.24,371.84a3.76,3.76,0,1,0,0-1H491.39V332.11H480.53a3.76,3.76,0,1,0,0,1h9.86v38.73Z" transform="translate(-70.83 -254.07)"/><path class="cls-3" d="M476.82,317.35a3.76,3.76,0,0,0,3.71-3.27h12.84V275.36h9.87a3.76,3.76,0,1,0,0-1H492.37v38.72H480.53a3.75,3.75,0,1,0-3.71,4.27Z" transform="translate(-70.83 -254.07)"/><path class="cls-3" d="M364.19,267.08a3.75,3.75,0,0,0,3.71-3.26H510.83a3.76,3.76,0,1,0,0-1H367.9a3.75,3.75,0,1,0-3.71,4.26Z" transform="translate(-70.83 -254.07)"/><path class="cls-3" d="M364.19,322.23A3.75,3.75,0,0,0,367.9,319h62.72a3.76,3.76,0,1,0,0-1H367.9a3.75,3.75,0,1,0-3.71,4.26Z" transform="translate(-70.83 -254.07)"/><path class="cls-3" d="M344.31,372.51a3.76,3.76,0,0,0-3.71,3.26H277.88a3.76,3.76,0,1,0,0,1H340.6a3.75,3.75,0,1,0,3.71-4.26Z" transform="translate(-70.83 -254.07)"/><path class="cls-3" d="M228.05,266.16a3.76,3.76,0,0,0-3.71,3.26H161.62a3.76,3.76,0,1,0,0,1h62.72a3.75,3.75,0,1,0,3.71-4.26Z" transform="translate(-70.83 -254.07)"/></svg>