<?xml version="1.0" encoding="utf-8"?>
<!-- Generator: Adobe Illustrator 28.0.0, SVG Export Plug-In . SVG Version: 6.00 Build 0)  -->
<svg version="1.1" id="Layer_1" xmlns="http://www.w3.org/2000/svg" xmlns:xlink="http://www.w3.org/1999/xlink" x="0px" y="0px"
	 viewBox="0 0 80 80" style="enable-background:new 0 0 80 80;" xml:space="preserve">
<style type="text/css">
	.st0{fill:none;}
</style>
<rect x="11.94" y="11.42" class="st0" width="54.75" height="59"/>
<g id="Group_20772">
	<path id="Path_24327" d="M56.07,43.32c0,4.01-1.45,7.89-4.08,10.92c-1.05,1.19-2.87,1.3-4.06,0.24c-1.17-1.04-1.3-2.82-0.28-4.02
		c3.95-4.54,3.47-11.43-1.08-15.38s-11.43-3.47-15.38,1.08c-3.51,4.04-3.57,10.02-0.14,14.13c1.01,1.23,0.82,3.04-0.41,4.05
		c-1.21,0.99-3,0.83-4.01-0.36c-5.89-7.06-4.94-17.56,2.12-23.45s17.56-4.94,23.45,2.12C54.7,35.65,56.07,39.42,56.07,43.32"/>
	<path id="Path_24328" d="M39.31,70.41c-15.12,0-27.37-12.26-27.37-27.38c0-7.26,2.88-14.22,8.01-19.35c1.12-1.12,2.95-1.12,4.07,0
		c1.12,1.12,1.12,2.95,0,4.07c-8.44,8.45-8.44,22.14,0.01,30.58s22.14,8.44,30.58-0.01c4.05-4.05,6.33-9.55,6.33-15.28
		c0.02-5.74-2.26-11.24-6.33-15.29c-1.12-1.12-1.12-2.95,0-4.07s2.95-1.12,4.07,0c10.69,10.69,10.68,28.03-0.01,38.71
		C53.53,67.53,46.57,70.42,39.31,70.41"/>
	<path id="Path_24329" d="M38.82,51.05c2.31,0,4.18,1.87,4.18,4.18s-1.87,4.18-4.18,4.18s-4.18-1.87-4.18-4.18l0,0
		C34.64,52.93,36.51,51.05,38.82,51.05"/>
	<path id="Path_24330" d="M45.5,17.6c0,3.42-2.77,6.18-6.18,6.18c-3.42,0-6.19-2.77-6.19-6.18s2.77-6.19,6.19-6.19c0,0,0,0,0,0
		C42.73,11.42,45.5,14.19,45.5,17.6"/>
</g>
</svg>
