<?xml version="1.0" encoding="utf-8"?>
<!-- Generator: Adobe Illustrator 28.0.0, SVG Export Plug-In . SVG Version: 6.00 Build 0)  -->
<svg version="1.1" id="Layer_1" xmlns="http://www.w3.org/2000/svg" xmlns:xlink="http://www.w3.org/1999/xlink" x="0px" y="0px"
	 viewBox="0 0 80 80" style="enable-background:new 0 0 80 80;" xml:space="preserve">
<style type="text/css">
	.st0{fill-rule:evenodd;clip-rule:evenodd;}
</style>
<g id="Group_5" transform="translate(0 0.368)">
	<path id="Path_3" class="st0" d="M61.01,38.55v11.18c0.09,1.54-1.09,2.87-2.64,2.95c-1.54,0.09-2.87-1.09-2.95-2.64
		c-0.01-0.11-0.01-0.21,0-0.32v-8.39H41.44v8.39c0.09,1.54-1.09,2.87-2.64,2.95c-1.54,0.09-2.87-1.09-2.95-2.64
		c-0.01-0.11-0.01-0.21,0-0.32v-8.39H21.87v8.39c0.09,1.54-1.09,2.87-2.64,2.95c-1.54,0.09-2.87-1.09-2.95-2.64
		c-0.01-0.11-0.01-0.21,0-0.32V38.55c0-1.55,1.25-2.8,2.8-2.8h16.77v-8.38c-0.09-1.54,1.09-2.87,2.64-2.95
		c1.54-0.09,2.87,1.09,2.95,2.64c0.01,0.11,0.01,0.21,0,0.32v8.39h16.77C59.76,35.76,61.01,37.01,61.01,38.55"/>
	<path id="Path_4" class="st0" d="M44.24,13.4v5.59c0,1.55-1.25,2.8-2.8,2.8c0,0,0,0,0,0h-5.58c-1.55,0-2.8-1.25-2.8-2.8
		c0,0,0,0,0,0V13.4c0-1.55,1.25-2.8,2.8-2.8c0,0,0,0,0,0h5.59C42.99,10.6,44.25,11.85,44.24,13.4"/>
	<path id="Path_5" class="st0" d="M24.67,58.12v5.59c0,1.55-1.25,2.8-2.8,2.8h-5.58c-1.55,0-2.8-1.25-2.8-2.8v-5.59
		c0-1.55,1.25-2.8,2.8-2.8h5.59C23.42,55.32,24.67,56.58,24.67,58.12"/>
	<path id="Path_6" class="st0" d="M44.24,58.12v5.59c0,1.55-1.25,2.8-2.8,2.8h-5.58c-1.55,0-2.8-1.25-2.8-2.8v-5.59
		c0-1.55,1.25-2.8,2.8-2.8h5.59C42.99,55.32,44.25,56.58,44.24,58.12"/>
	<path id="Path_7" class="st0" d="M63.81,58.12v5.59c0,1.55-1.25,2.8-2.8,2.8h-5.58c-1.55,0-2.8-1.25-2.8-2.8v-5.59
		c0-1.55,1.25-2.8,2.8-2.8h5.59C62.56,55.32,63.81,56.58,63.81,58.12"/>
</g>
</svg>
