<?xml version="1.0" encoding="utf-8"?>
<!-- Generator: Adobe Illustrator 28.0.0, SVG Export Plug-In . SVG Version: 6.00 Build 0)  -->
<svg version="1.1" id="Layer_1" xmlns="http://www.w3.org/2000/svg" xmlns:xlink="http://www.w3.org/1999/xlink" x="0px" y="0px"
	 viewBox="0 0 80 80" style="enable-background:new 0 0 80 80;" xml:space="preserve">
<g id="Group_20775">
	<path id="Path_24336" d="M28.82,43.76l1.68-1.65c-0.87-0.89-1.72-1.76-2.58-2.62c-2.04-1.75-2.27-4.83-0.51-6.86
		c0.16-0.18,0.33-0.36,0.51-0.51c0.95-0.94,1.89-1.89,2.84-2.84c1.81-1.98,4.89-2.13,6.87-0.32c0.11,0.1,0.22,0.21,0.32,0.32
		c0.9,0.9,1.83,1.75,2.72,2.6c0.46-0.47,1-1.02,1.59-1.62c-0.86-0.86-1.8-1.8-2.72-2.75c-1.66-1.53-2-4.03-0.8-5.95
		c0.28-0.44,0.61-0.84,0.99-1.2c2.35-2.37,4.71-4.73,7.07-7.08c1.69-1.95,4.65-2.15,6.59-0.45c0.13,0.11,0.25,0.23,0.36,0.35
		c2.78,2.7,5.52,5.44,8.23,8.21c1.93,1.8,2.03,4.83,0.22,6.76c-0.09,0.09-0.18,0.19-0.28,0.27c-2.38,2.4-4.77,4.78-7.18,7.15
		C53,37.53,49.98,37.71,48,35.97c-0.15-0.13-0.29-0.28-0.42-0.43c-0.9-0.89-1.79-1.78-2.7-2.69l-1.67,1.7
		c0.22,0.22,0.45,0.45,0.67,0.69c0.82,0.85,1.68,1.65,2.44,2.55c1.62,1.74,1.62,4.44-0.01,6.18c-1.2,1.36-2.48,2.64-3.84,3.84
		c-1.79,1.61-4.53,1.55-6.25-0.13c-1.04-0.97-1.98-2.06-2.94-3.06l-1.73,1.79c0.46,0.48,1.04,1.04,1.59,1.63
		c0.71,0.67,1.35,1.4,1.92,2.19c1.14,1.77,0.9,4.09-0.58,5.59c-2.53,2.66-5.11,5.27-7.79,7.78c-1.77,1.82-4.68,1.86-6.5,0.09
		c-0.08-0.08-0.17-0.17-0.24-0.26c-2.77-2.7-5.51-5.44-8.22-8.22c-1.9-1.8-1.98-4.81-0.17-6.7c0.09-0.09,0.18-0.18,0.28-0.27
		c2.39-2.39,4.77-4.78,7.17-7.15c1.73-1.97,4.73-2.17,6.7-0.44c0.16,0.14,0.32,0.3,0.46,0.46C27.03,41.98,27.91,42.86,28.82,43.76
		 M47.91,19.05l8.31,8.23l2.39-2.5l-8.3-8.22L47.91,19.05 M15.17,51.68l8.15,8.28l2.46-2.36l-8.16-8.27L15.17,51.68 M42.83,23.87
		l8.26,8.38c0.81-0.82,1.62-1.64,2.4-2.43l-8.26-8.27C44.42,22.33,43.59,23.13,42.83,23.87 M22.47,44.27l-2.27,2.35l8.25,8.26
		l2.42-2.33L22.47,44.27"/>
	<path id="Path_24337" d="M60.34,45.04h4.53c0.27,11.53-9.75,21.55-21.28,21.28v-4.53C53.71,60.72,59.27,55.17,60.34,45.04"/>
	<path id="Path_24338" d="M43.58,56.83V52.2c4.33-0.45,6.71-2.82,7.17-7.16h4.57C55.72,50.61,50.6,56.94,43.58,56.83"/>
</g>
</svg>
